<svg xmlns="http://www.w3.org/2000/svg" width="360" height="108" viewBox="0 0 360 108" role="img" aria-labelledby="title desc">
<title id="title">Get it on Google Play</title><desc id="desc">Google Play download badge mock asset</desc>
<rect width="360" height="108" rx="18" fill="#050505"/>
<rect x="1.5" y="1.5" width="357" height="105" rx="16.5" fill="none" stroke="#A6A6A6" stroke-width="3"/>
<path d="M43 24.6v58.8c0 2.5 2.8 4 4.9 2.7l34.6-31.2L47.9 21.9C45.8 20.6 43 22.1 43 24.6Z" fill="#00F0FF"/>
<path d="m82.5 54.9 10.9-9.8c2.2-2 1.7-5.6-.9-7L55.1 17.8c-2.6-1.4-5.4 1.8-3.6 4.2l31 32.9Z" fill="#00E676"/>
<path d="m82.5 54.9-31 32.9c-1.8 2.4 1 5.6 3.6 4.2l37.4-20.3c2.6-1.4 3.1-5 .9-7l-10.9-9.8Z" fill="#FFEA00"/>
<path d="m82.5 54.9 10.9 9.8 13.3-7.2c2.4-1.3 2.4-4.8 0-6.1l-13.3-7.2-10.9 10.7Z" fill="#FF3D00"/>
<text x="126" y="42" fill="#fff" font-family="Arial, Helvetica, sans-serif" font-size="18" font-weight="500">GET IT ON</text>
<text x="126" y="78" fill="#fff" font-family="Arial, Helvetica, sans-serif" font-size="34" font-weight="700">Google Play</text>
</svg>
